<svg width="99" height="110" viewBox="0 0 99 110" fill="none" xmlns="http://www.w3.org/2000/svg">
<g filter="url(#filter0_d_2_13)">
<path d="M71.416 78.68H27.64L19.576 101H5.75201L42.04 1.20799H57.16L93.304 101H79.48L71.416 78.68ZM67.672 68.024L49.528 17.336L31.384 68.024H67.672Z" fill="#FFD700"/>
<path d="M19.576 101.5H19.927L20.0463 101.17L27.991 79.18H71.065L79.0098 101.17L79.129 101.5H79.48H93.304H94.0169L93.7741 100.83L57.6301 1.03772L57.5107 0.707993H57.16H42.04H41.6898L41.5701 1.03712L5.28212 100.829L5.03816 101.5H5.75201H19.576ZM32.0941 67.524L49.528 18.8196L66.962 67.524H32.0941Z" stroke="#FFD700"/>
</g>
<defs>
<filter id="filter0_d_2_13" x="0.32431" y="0.207993" width="98.4055" height="109.792" filterUnits="userSpaceOnUse" color-interpolation-filters="sRGB">
<feFlood flood-opacity="0" result="BackgroundImageFix"/>
<feColorMatrix in="SourceAlpha" type="matrix" values="0 0 0 0 0 0 0 0 0 0 0 0 0 0 0 0 0 0 127 0" result="hardAlpha"/>
<feOffset dy="4"/>
<feGaussianBlur stdDeviation="2"/>
<feComposite in2="hardAlpha" operator="out"/>
<feColorMatrix type="matrix" values="0 0 0 0 0 0 0 0 0 0 0 0 0 0 0 0 0 0 0.25 0"/>
<feBlend mode="normal" in2="BackgroundImageFix" result="effect1_dropShadow_2_13"/>
<feBlend mode="normal" in="SourceGraphic" in2="effect1_dropShadow_2_13" result="shape"/>
</filter>
</defs>
</svg>
