<svg width="450" height="104" viewBox="0 0 450 104" fill="none" xmlns="http://www.w3.org/2000/svg">
<path d="M69.856 84.144H32.128L26.08 102H0.304L36.88 0.911997H65.392L101.968 102H75.904L69.856 84.144ZM63.52 65.136L50.992 28.128L38.608 65.136H63.52ZM137.724 35.04C140.604 30.624 144.204 27.168 148.524 24.672C152.844 22.08 157.644 20.784 162.924 20.784V46.848H156.156C150.012 46.848 145.404 48.192 142.332 50.88C139.26 53.472 137.724 58.08 137.724 64.704V102H113.1V21.648H137.724V35.04ZM223.654 20.784C233.062 20.784 240.55 23.856 246.118 30C251.782 36.048 254.614 44.4 254.614 55.056V102H230.134V58.368C230.134 52.992 228.742 48.816 225.958 45.84C223.174 42.864 219.43 41.376 214.726 41.376C210.022 41.376 206.278 42.864 203.494 45.84C200.71 48.816 199.318 52.992 199.318 58.368V102H174.694V21.648H199.318V32.304C201.814 28.752 205.174 25.968 209.398 23.952C213.622 21.84 218.374 20.784 223.654 20.784ZM266.829 61.68C266.829 53.424 268.365 46.176 271.437 39.936C274.605 33.696 278.877 28.896 284.253 25.536C289.629 22.176 295.629 20.496 302.253 20.496C307.917 20.496 312.861 21.648 317.085 23.952C321.405 26.256 324.717 29.28 327.021 33.024V21.648H351.645V102H327.021V90.624C324.621 94.368 321.261 97.392 316.941 99.696C312.717 102 307.773 103.152 302.109 103.152C295.581 103.152 289.629 101.472 284.253 98.112C278.877 94.656 274.605 89.808 271.437 83.568C268.365 77.232 266.829 69.936 266.829 61.68ZM327.021 61.824C327.021 55.68 325.293 50.832 321.837 47.28C318.477 43.728 314.349 41.952 309.453 41.952C304.557 41.952 300.381 43.728 296.925 47.28C293.565 50.736 291.885 55.536 291.885 61.68C291.885 67.824 293.565 72.72 296.925 76.368C300.381 79.92 304.557 81.696 309.453 81.696C314.349 81.696 318.477 79.92 321.837 76.368C325.293 72.816 327.021 67.968 327.021 61.824ZM405.603 78.96L423.027 21.648H449.235L420.723 102H390.339L361.827 21.648H388.179L405.603 78.96Z" fill="#FFFFFF"/>
</svg>
